<?xml version="1.0" encoding="utf-8"?>
<!-- Generator: Adobe Illustrator 26.1.0, SVG Export Plug-In . SVG Version: 6.00 Build 0)  -->
<svg version="1.1" id="Layer_1" xmlns="http://www.w3.org/2000/svg" xmlns:xlink="http://www.w3.org/1999/xlink" x="0px" y="0px"
	 viewBox="0 0 1170 213" style="enable-background:new 0 0 1170 213;" xml:space="preserve">
<style type="text/css">
	.st0{fill-rule:evenodd;clip-rule:evenodd;}
</style>
<path class="st0" d="M181.8,124.2c-3.4,2-7.5,2.7-10.2,0.7c-4.1-2-6.1-7.5-6.1-14.3V88.8c0-10.2-4.1-17.7-10.9-19.7
	C143,65.7,134.1,80,130.7,85.4l-20.4,33.3V77.9c0-9.5-3.4-15-8.8-16.3c-4.1-1.4-9.5-0.7-15,7.5l-45.6,73.5
	c-6.1-11.6-9.5-24.5-9.5-38.1c0-44.2,35.4-80.3,78.9-80.3s78.9,36.7,78.9,81l0,0l0,0C189.9,114,187.2,120.8,181.8,124.2L181.8,124.2
	z M207,105.1L207,105.1L207,105.1c0-54.4-43.6-98-96.6-98s-96.6,44.2-96.6,98s43.6,98,96.6,98c24.5,0,47.6-9.5,66-26.5
	c3.4-3.4,4.1-8.8,0.7-12.9c-3.4-3.4-8.8-4.1-12.2-0.7l0,0c-14.3,13.6-34,21.8-53.8,21.8c-23.1,0-44.2-10.2-59.2-26.5l41.5-66.7v30.6
	c0,15,5.4,19.7,10.2,21.1s12.2,0.7,19.7-12.3l22.5-36.8c0.7-1.4,1.4-2,2-3.4v18.4c0,13.6,5.4,24.5,15,29.9
	c8.8,4.8,19.7,4.8,28.6-1.4C202.2,133,207.6,120.1,207,105.1z M341.7,71.8c2,1.4,4.1,4.8,4.1,7.5c0,4.8-4.1,8.2-8.2,8.2
	c-1.4,0-2,0-3.4-0.7c-5.4-4.1-11.6-6.1-18.4-6.1c-16.3,0-27.2,12.9-27.2,29.3s10.9,29.3,27.2,29.3c8.2,0,15-3.4,20.4-8.2
	c1.4-0.7,3.4-1.4,4.8-1.4c4.1,0,7.5,3.4,7.5,8.2c0,2.7-2,5.4-4.1,6.8c-7.5,6.8-18.4,10.9-29.3,10.9c-24.5,0-44.9-20.4-44.9-45.6
	s20.4-45.6,44.9-45.6C326,63.6,334.9,66.4,341.7,71.8z M387.3,90.9c17,0,31.3,14.3,31.3,32s-14.3,32.7-31.3,32.7
	c-17.7,0-32.7-15-32.7-32.7C354.6,105.1,369.6,90.9,387.3,90.9L387.3,90.9z M387.3,139.2c7.5,0,13.6-6.8,13.6-16.3
	s-6.1-15.7-13.6-15.7c-8.2,0-15,6.1-15,15.7S379.1,139.2,387.3,139.2z M428.8,145.3v-44.9c0-4.8,4.1-8.8,8.8-8.8s8.8,4.1,8.8,8.8
	v44.9c0,4.8-4.1,8.8-8.8,8.8C432.9,154.1,428.8,150.1,428.8,145.3z M427.5,74.5c0-6.1,4.8-10.2,10.2-10.2c5.4,0,10.2,4.8,10.2,10.2
	s-4.8,10.2-10.2,10.2C432.2,84.7,427.5,80,427.5,74.5z M479.9,120.8v24.5c0,4.8-4.1,8.8-8.8,8.8c-4.8,0-8.8-4.1-8.8-8.8v-47
	c0-4.1,3.4-6.8,6.8-6.8c3.4,0,6.8,3.4,6.8,6.8c6.8-6.8,13.6-7.5,19.1-7.5c17.7,0,25.2,12.9,25.2,27.9v26.5c0,4.8-4.1,8.8-8.8,8.8
	c-4.8,0-8.8-4.1-8.8-8.8v-24.5c0-7.5-0.7-14.3-12.3-14.3C483.3,106.5,479.9,113.3,479.9,120.8L479.9,120.8L479.9,120.8z
	 M577.9,130.3c-2,0-3.4-0.7-4.8-2l-20.4-22.5v39.5c0,4.8-4.1,8.8-8.8,8.8c-4.8,0-8.8-4.1-8.8-8.8V67c0.7-1.4,2-2,3.4-2
	s2.7,1.4,3.4,2l32.7,36.8c0.7,1.4,2,2,2.7,2c0.7,0,2-0.7,2.7-2L612.6,67c0.7-0.7,2-2,3.4-2s2.7,0.7,3.4,2v78.3
	c0,4.8-4.1,8.8-8.8,8.8s-8.8-4.1-8.8-8.8v-39.5l-20.4,22.5C580.6,129,579.2,130.3,577.9,130.3L577.9,130.3z M661.6,139.2
	c8.2,0,14.3-6.8,14.3-16.3s-6.8-15.7-14.3-15.7s-13.6,6.1-13.6,15.7C648,131.7,654.1,139.2,661.6,139.2z M680.6,147.3v-2
	c-3.4,6.8-14.3,9.5-21.1,9.5c-16.3,0-28.6-15-28.6-32.7c0-17.7,12.2-32,29.3-32c2.7,0,12.9,0.7,20.4,9.5v-2c0-4.1,2.7-6.8,6.8-6.8
	c3.4,0,6.8,3.4,6.8,6.8v49c0,4.1-3.4,6.8-6.8,6.8C683.3,154.1,680.6,151.4,680.6,147.3L680.6,147.3L680.6,147.3z M742.5,106.5h-2
	c-10.9,0.7-12.9,6.8-12.9,14.3v24.5c0,4.8-4.1,8.8-8.8,8.8c-4.8,0-8.8-4.1-8.8-8.8v-47c0-4.1,3.4-6.8,6.8-6.8s6.8,3.4,6.8,6.8
	c6.8-6.1,11.6-7.5,17-7.5h2c4.1,0,8.2,3.4,8.2,8.2C750,103.1,746.6,106.5,742.5,106.5L742.5,106.5z M809.9,141.2
	c0.7,1.4,1.4,2.7,1.4,4.1c0,4.8-4.1,8.8-8.8,8.8c-3.4,0-5.4-2-7.5-4.8l-20.4-23.1v19.1c0,4.8-4.1,8.8-8.8,8.8
	c-4.8,0-8.8-4.1-8.8-8.8V73.8c0-4.8,4.1-8.8,8.8-8.8c4.8,0,8.8,4.1,8.8,8.8v44.9L795,96.3c2-2,4.8-4.8,7.5-4.8
	c4.1,0,8.2,4.1,8.2,8.8c0,1.4,0,2.7-1.4,4.1l-15.7,17.7L809.9,141.2L809.9,141.2z M844,107.2c-4.8,0-12.3,2.7-12.3,10.2h25.2
	C856.9,109.2,848.7,107.2,844,107.2L844,107.2L844,107.2z M867.1,128.3h-35.4c0,10.2,10.2,12.3,14.3,12.3c3.4,0,8.2-0.7,11.6-2
	c1.4-0.7,2.7-1.4,4.8-1.4c4.1,0,6.8,3.4,6.8,7.5c0,2.7-2,4.8-4.1,6.1c-5.4,4.1-12.2,4.8-19.1,4.8c-17.7,0-32.7-9.5-32.7-32
	c0-17.7,8.8-32.7,29.9-32.7c17,0,29.9,10.9,29.9,30.6C873.9,124.9,871.2,128.3,867.1,128.3L867.1,128.3z M916.1,154.8h-4.8
	c-13.6,0-21.1-6.1-21.1-26.5v-21.8h-4.8c-4.1,0-8.2-4.1-8.2-8.2c0-4.8,3.4-8.2,8.2-8.2h4.8V73.8c0-4.8,4.1-8.8,8.8-8.8
	c4.8,0,8.8,4.1,8.8,8.8v16.3h7.5c4.1,0,8.2,3.4,8.2,8.2c0,4.1-3.4,8.2-8.2,8.2h-7.5v18.4c0,12.3,0.7,14.3,6.1,14.3h2.7
	c4.1,0,7.5,3.4,7.5,8.2C923.6,151.4,920.2,154.8,916.1,154.8L916.1,154.8z M1000.5,71.8c2,1.4,4.1,4.8,4.1,7.5
	c0,4.8-4.1,8.2-8.2,8.2c-1.4,0-2,0-3.4-0.7c-5.4-4.1-11.6-6.1-18.4-6.1c-16.3,0-27.2,12.9-27.2,29.3s10.9,29.3,27.2,29.3
	c8.2,0,15-3.4,20.4-8.2c1.4-0.7,3.4-1.4,4.8-1.4c4.1,0,7.5,3.4,7.5,8.2c0,2.7-2,5.4-4.1,6.8c-7.5,6.8-18.4,10.9-29.3,10.9
	c-24.5,0-44.9-20.4-44.9-45.6s20.4-45.6,44.9-45.6C984.8,63.6,993.7,66.4,1000.5,71.8L1000.5,71.8z M1045.4,139.2
	c8.2,0,14.3-6.8,14.3-16.3s-6.8-15.7-14.3-15.7s-13.6,6.1-13.6,15.7C1031.1,131.7,1037.2,139.2,1045.4,139.2L1045.4,139.2
	L1045.4,139.2z M1063.8,147.3v-2c-3.4,6.8-14.3,9.5-21.1,9.5c-16.3,0-28.6-15-28.6-32.7c0-17.7,12.3-32,29.3-32
	c2.7,0,12.9,0.7,20.4,9.5v-2c0-4.1,2.7-6.8,6.8-6.8c3.4,0,6.8,3.4,6.8,6.8v49c0,4.1-3.4,6.8-6.8,6.8
	C1066.5,154.1,1063.8,151.4,1063.8,147.3z M1125.7,139.2c7.5,0,13.6-7.5,13.6-16.3c0-9.5-6.1-15.7-13.6-15.7
	c-7.5,0-14.3,6.1-14.3,15.7C1110.7,132.4,1117.5,139.2,1125.7,139.2z M1110.7,150.1v22.5c0,4.8-4.1,8.8-8.8,8.8
	c-4.8,0-8.8-4.1-8.8-8.8V98.3c0-4.1,3.4-6.8,6.8-6.8c3.4,0,6.8,3.4,6.8,7.5c6.8-6.8,14.3-8.2,20.4-8.2c17,0,29.3,14.3,29.3,32
	s-12.2,32.7-28.6,32.7C1123,154.8,1115.5,153.5,1110.7,150.1L1110.7,150.1z"/>
</svg>
